<?xml version="1.0" encoding="UTF-8" standalone="no"?>
<!DOCTYPE svg PUBLIC "-//W3C//DTD SVG 1.1//EN"
 "http://www.w3.org/Graphics/SVG/1.1/DTD/svg11.dtd">
<!-- Generated by graphviz version 2.38.0 (20140413.2041)
 -->
<!-- Title: decision_tree Pages: 1 -->
<svg width="380pt" height="392pt"
 viewBox="0.00 0.00 380.00 392.00" xmlns="http://www.w3.org/2000/svg" xmlns:xlink="http://www.w3.org/1999/xlink">
<g id="graph0" class="graph" transform="scale(1 1) rotate(0) translate(4 388)">
<title>decision_tree</title>
<polygon fill="white" stroke="none" points="-4,4 -4,-388 376,-388 376,4 -4,4"/>
<!-- d73f0d83&#45;2878&#45;4afd&#45;bd92&#45;40cfc0ea9706 -->
<g id="node1" class="node"><title>d73f0d83&#45;2878&#45;4afd&#45;bd92&#45;40cfc0ea9706</title>
<ellipse fill="none" stroke="black" cx="99" cy="-366" rx="27.0966" ry="18"/>
<text text-anchor="middle" x="99" y="-362.3" font-family="Times New Roman,serif" font-size="14.00">纹理</text>
</g>
<!-- 92d3df7d&#45;fd3a&#45;4e77&#45;84ef&#45;cdec6bac82b8 -->
<g id="node2" class="node"><title>92d3df7d&#45;fd3a&#45;4e77&#45;84ef&#45;cdec6bac82b8</title>
<ellipse fill="none" stroke="black" cx="27" cy="-279" rx="27" ry="18"/>
<text text-anchor="middle" x="27" y="-275.3" font-family="Times New Roman,serif" font-size="14.00">否</text>
</g>
<!-- d73f0d83&#45;2878&#45;4afd&#45;bd92&#45;40cfc0ea9706&#45;&gt;92d3df7d&#45;fd3a&#45;4e77&#45;84ef&#45;cdec6bac82b8 -->
<g id="edge1" class="edge"><title>d73f0d83&#45;2878&#45;4afd&#45;bd92&#45;40cfc0ea9706&#45;&gt;92d3df7d&#45;fd3a&#45;4e77&#45;84ef&#45;cdec6bac82b8</title>
<path fill="none" stroke="black" d="M86.1202,-350.04C80.8054,-343.849 74.5922,-336.59 69,-330 61.5517,-321.222 53.4039,-311.541 46.2835,-303.054"/>
<polygon fill="black" stroke="black" points="48.9339,-300.767 39.8279,-295.351 43.569,-305.264 48.9339,-300.767"/>
<text text-anchor="middle" x="82" y="-318.8" font-family="Times New Roman,serif" font-size="14.00">模糊</text>
</g>
<!-- ed0b4fe9&#45;592c&#45;4648&#45;adf8&#45;a818235c2319 -->
<g id="node3" class="node"><title>ed0b4fe9&#45;592c&#45;4648&#45;adf8&#45;a818235c2319</title>
<ellipse fill="none" stroke="black" cx="99" cy="-279" rx="27.0966" ry="18"/>
<text text-anchor="middle" x="99" y="-275.3" font-family="Times New Roman,serif" font-size="14.00">触感</text>
</g>
<!-- d73f0d83&#45;2878&#45;4afd&#45;bd92&#45;40cfc0ea9706&#45;&gt;ed0b4fe9&#45;592c&#45;4648&#45;adf8&#45;a818235c2319 -->
<g id="edge2" class="edge"><title>d73f0d83&#45;2878&#45;4afd&#45;bd92&#45;40cfc0ea9706&#45;&gt;ed0b4fe9&#45;592c&#45;4648&#45;adf8&#45;a818235c2319</title>
<path fill="none" stroke="black" d="M99,-347.799C99,-336.163 99,-320.548 99,-307.237"/>
<polygon fill="black" stroke="black" points="102.5,-307.175 99,-297.175 95.5001,-307.175 102.5,-307.175"/>
<text text-anchor="middle" x="112" y="-318.8" font-family="Times New Roman,serif" font-size="14.00">稍糊</text>
</g>
<!-- bdf11a5d&#45;729f&#45;48fe&#45;a113&#45;fe93259db8e8 -->
<g id="node6" class="node"><title>bdf11a5d&#45;729f&#45;48fe&#45;a113&#45;fe93259db8e8</title>
<ellipse fill="none" stroke="black" cx="219" cy="-279" rx="27.0966" ry="18"/>
<text text-anchor="middle" x="219" y="-275.3" font-family="Times New Roman,serif" font-size="14.00">根蒂</text>
</g>
<!-- d73f0d83&#45;2878&#45;4afd&#45;bd92&#45;40cfc0ea9706&#45;&gt;bdf11a5d&#45;729f&#45;48fe&#45;a113&#45;fe93259db8e8 -->
<g id="edge5" class="edge"><title>d73f0d83&#45;2878&#45;4afd&#45;bd92&#45;40cfc0ea9706&#45;&gt;bdf11a5d&#45;729f&#45;48fe&#45;a113&#45;fe93259db8e8</title>
<path fill="none" stroke="black" d="M116.965,-352.275C137.025,-338.066 169.682,-314.934 192.636,-298.674"/>
<polygon fill="black" stroke="black" points="194.775,-301.449 200.912,-292.812 190.729,-295.736 194.775,-301.449"/>
<text text-anchor="middle" x="180" y="-318.8" font-family="Times New Roman,serif" font-size="14.00">清晰</text>
</g>
<!-- 861efb40&#45;da35&#45;4ce5&#45;b86d&#45;fa1916e8c2d4 -->
<g id="node4" class="node"><title>861efb40&#45;da35&#45;4ce5&#45;b86d&#45;fa1916e8c2d4</title>
<ellipse fill="none" stroke="black" cx="27" cy="-192" rx="27" ry="18"/>
<text text-anchor="middle" x="27" y="-188.3" font-family="Times New Roman,serif" font-size="14.00">否</text>
</g>
<!-- ed0b4fe9&#45;592c&#45;4648&#45;adf8&#45;a818235c2319&#45;&gt;861efb40&#45;da35&#45;4ce5&#45;b86d&#45;fa1916e8c2d4 -->
<g id="edge3" class="edge"><title>ed0b4fe9&#45;592c&#45;4648&#45;adf8&#45;a818235c2319&#45;&gt;861efb40&#45;da35&#45;4ce5&#45;b86d&#45;fa1916e8c2d4</title>
<path fill="none" stroke="black" d="M86.1202,-263.04C80.8054,-256.849 74.5922,-249.59 69,-243 61.5517,-234.222 53.4039,-224.541 46.2835,-216.054"/>
<polygon fill="black" stroke="black" points="48.9339,-213.767 39.8279,-208.351 43.569,-218.264 48.9339,-213.767"/>
<text text-anchor="middle" x="82" y="-231.8" font-family="Times New Roman,serif" font-size="14.00">硬滑</text>
</g>
<!-- cfef8308&#45;a312&#45;4260&#45;bd67&#45;fd6e5218780c -->
<g id="node5" class="node"><title>cfef8308&#45;a312&#45;4260&#45;bd67&#45;fd6e5218780c</title>
<ellipse fill="none" stroke="black" cx="99" cy="-192" rx="27" ry="18"/>
<text text-anchor="middle" x="99" y="-188.3" font-family="Times New Roman,serif" font-size="14.00">是</text>
</g>
<!-- ed0b4fe9&#45;592c&#45;4648&#45;adf8&#45;a818235c2319&#45;&gt;cfef8308&#45;a312&#45;4260&#45;bd67&#45;fd6e5218780c -->
<g id="edge4" class="edge"><title>ed0b4fe9&#45;592c&#45;4648&#45;adf8&#45;a818235c2319&#45;&gt;cfef8308&#45;a312&#45;4260&#45;bd67&#45;fd6e5218780c</title>
<path fill="none" stroke="black" d="M99,-260.799C99,-249.163 99,-233.548 99,-220.237"/>
<polygon fill="black" stroke="black" points="102.5,-220.175 99,-210.175 95.5001,-220.175 102.5,-220.175"/>
<text text-anchor="middle" x="112" y="-231.8" font-family="Times New Roman,serif" font-size="14.00">软粘</text>
</g>
<!-- 0847b779&#45;2dfd&#45;48cb&#45;8bc4&#45;4fa6830de178 -->
<g id="node7" class="node"><title>0847b779&#45;2dfd&#45;48cb&#45;8bc4&#45;4fa6830de178</title>
<ellipse fill="none" stroke="black" cx="171" cy="-192" rx="27" ry="18"/>
<text text-anchor="middle" x="171" y="-188.3" font-family="Times New Roman,serif" font-size="14.00">否</text>
</g>
<!-- bdf11a5d&#45;729f&#45;48fe&#45;a113&#45;fe93259db8e8&#45;&gt;0847b779&#45;2dfd&#45;48cb&#45;8bc4&#45;4fa6830de178 -->
<g id="edge6" class="edge"><title>bdf11a5d&#45;729f&#45;48fe&#45;a113&#45;fe93259db8e8&#45;&gt;0847b779&#45;2dfd&#45;48cb&#45;8bc4&#45;4fa6830de178</title>
<path fill="none" stroke="black" d="M209.811,-261.987C206.404,-256.032 202.515,-249.213 199,-243 194.423,-234.909 189.457,-226.063 184.996,-218.092"/>
<polygon fill="black" stroke="black" points="187.978,-216.254 180.044,-209.233 181.868,-219.67 187.978,-216.254"/>
<text text-anchor="middle" x="212" y="-231.8" font-family="Times New Roman,serif" font-size="14.00">硬挺</text>
</g>
<!-- df78d9e0&#45;1a65&#45;473d&#45;ae17&#45;e0b8078be2ba -->
<g id="node8" class="node"><title>df78d9e0&#45;1a65&#45;473d&#45;ae17&#45;e0b8078be2ba</title>
<ellipse fill="none" stroke="black" cx="243" cy="-192" rx="27" ry="18"/>
<text text-anchor="middle" x="243" y="-188.3" font-family="Times New Roman,serif" font-size="14.00">是</text>
</g>
<!-- bdf11a5d&#45;729f&#45;48fe&#45;a113&#45;fe93259db8e8&#45;&gt;df78d9e0&#45;1a65&#45;473d&#45;ae17&#45;e0b8078be2ba -->
<g id="edge7" class="edge"><title>bdf11a5d&#45;729f&#45;48fe&#45;a113&#45;fe93259db8e8&#45;&gt;df78d9e0&#45;1a65&#45;473d&#45;ae17&#45;e0b8078be2ba</title>
<path fill="none" stroke="black" d="M223.742,-261.207C227.095,-249.332 231.658,-233.168 235.502,-219.557"/>
<polygon fill="black" stroke="black" points="238.919,-220.333 238.268,-209.758 232.183,-218.431 238.919,-220.333"/>
<text text-anchor="middle" x="245" y="-231.8" font-family="Times New Roman,serif" font-size="14.00">蜷缩</text>
</g>
<!-- 7b84dc0e&#45;8599&#45;4bfd&#45;b305&#45;ef6ff0627d75 -->
<g id="node9" class="node"><title>7b84dc0e&#45;8599&#45;4bfd&#45;b305&#45;ef6ff0627d75</title>
<ellipse fill="none" stroke="black" cx="315" cy="-192" rx="27.0966" ry="18"/>
<text text-anchor="middle" x="315" y="-188.3" font-family="Times New Roman,serif" font-size="14.00">色泽</text>
</g>
<!-- bdf11a5d&#45;729f&#45;48fe&#45;a113&#45;fe93259db8e8&#45;&gt;7b84dc0e&#45;8599&#45;4bfd&#45;b305&#45;ef6ff0627d75 -->
<g id="edge8" class="edge"><title>bdf11a5d&#45;729f&#45;48fe&#45;a113&#45;fe93259db8e8&#45;&gt;7b84dc0e&#45;8599&#45;4bfd&#45;b305&#45;ef6ff0627d75</title>
<path fill="none" stroke="black" d="M235.981,-264.65C243.988,-258.237 253.604,-250.36 262,-243 272.404,-233.88 283.593,-223.426 292.996,-214.442"/>
<polygon fill="black" stroke="black" points="295.637,-216.758 300.419,-207.304 290.785,-211.713 295.637,-216.758"/>
<text text-anchor="middle" x="291" y="-231.8" font-family="Times New Roman,serif" font-size="14.00">稍蜷</text>
</g>
<!-- a81fb3ad&#45;74ef&#45;4deb&#45;a110&#45;a7b0f4ca40c7 -->
<g id="node10" class="node"><title>a81fb3ad&#45;74ef&#45;4deb&#45;a110&#45;a7b0f4ca40c7</title>
<ellipse fill="none" stroke="black" cx="273" cy="-105" rx="27.0966" ry="18"/>
<text text-anchor="middle" x="273" y="-101.3" font-family="Times New Roman,serif" font-size="14.00">触感</text>
</g>
<!-- 7b84dc0e&#45;8599&#45;4bfd&#45;b305&#45;ef6ff0627d75&#45;&gt;a81fb3ad&#45;74ef&#45;4deb&#45;a110&#45;a7b0f4ca40c7 -->
<g id="edge9" class="edge"><title>7b84dc0e&#45;8599&#45;4bfd&#45;b305&#45;ef6ff0627d75&#45;&gt;a81fb3ad&#45;74ef&#45;4deb&#45;a110&#45;a7b0f4ca40c7</title>
<path fill="none" stroke="black" d="M306.902,-174.611C300.859,-162.382 292.489,-145.443 285.578,-131.456"/>
<polygon fill="black" stroke="black" points="288.641,-129.753 281.073,-122.339 282.365,-132.854 288.641,-129.753"/>
<text text-anchor="middle" x="309" y="-144.8" font-family="Times New Roman,serif" font-size="14.00">乌黑</text>
</g>
<!-- 612acfce&#45;0af3&#45;47b7&#45;ba62&#45;7b5c8998c5d0 -->
<g id="node13" class="node"><title>612acfce&#45;0af3&#45;47b7&#45;ba62&#45;7b5c8998c5d0</title>
<ellipse fill="none" stroke="black" cx="345" cy="-105" rx="27" ry="18"/>
<text text-anchor="middle" x="345" y="-101.3" font-family="Times New Roman,serif" font-size="14.00">是</text>
</g>
<!-- 7b84dc0e&#45;8599&#45;4bfd&#45;b305&#45;ef6ff0627d75&#45;&gt;612acfce&#45;0af3&#45;47b7&#45;ba62&#45;7b5c8998c5d0 -->
<g id="edge12" class="edge"><title>7b84dc0e&#45;8599&#45;4bfd&#45;b305&#45;ef6ff0627d75&#45;&gt;612acfce&#45;0af3&#45;47b7&#45;ba62&#45;7b5c8998c5d0</title>
<path fill="none" stroke="black" d="M320.927,-174.207C325.118,-162.332 330.823,-146.168 335.627,-132.557"/>
<polygon fill="black" stroke="black" points="339.057,-133.353 339.085,-122.758 332.457,-131.023 339.057,-133.353"/>
<text text-anchor="middle" x="344" y="-144.8" font-family="Times New Roman,serif" font-size="14.00">青绿</text>
</g>
<!-- 7971b1fb&#45;9e00&#45;49ce&#45;80ee&#45;18e76b2d2aa9 -->
<g id="node11" class="node"><title>7971b1fb&#45;9e00&#45;49ce&#45;80ee&#45;18e76b2d2aa9</title>
<ellipse fill="none" stroke="black" cx="237" cy="-18" rx="27" ry="18"/>
<text text-anchor="middle" x="237" y="-14.3" font-family="Times New Roman,serif" font-size="14.00">是</text>
</g>
<!-- a81fb3ad&#45;74ef&#45;4deb&#45;a110&#45;a7b0f4ca40c7&#45;&gt;7971b1fb&#45;9e00&#45;49ce&#45;80ee&#45;18e76b2d2aa9 -->
<g id="edge10" class="edge"><title>a81fb3ad&#45;74ef&#45;4deb&#45;a110&#45;a7b0f4ca40c7&#45;&gt;7971b1fb&#45;9e00&#45;49ce&#45;80ee&#45;18e76b2d2aa9</title>
<path fill="none" stroke="black" d="M265.888,-87.2067C260.776,-75.1377 253.788,-58.6384 247.965,-44.8906"/>
<polygon fill="black" stroke="black" points="251.098,-43.3123 243.975,-35.4692 244.652,-46.0423 251.098,-43.3123"/>
<text text-anchor="middle" x="270" y="-57.8" font-family="Times New Roman,serif" font-size="14.00">硬滑</text>
</g>
<!-- 8ceb2367&#45;ecd8&#45;4146&#45;b734&#45;411101f719c5 -->
<g id="node12" class="node"><title>8ceb2367&#45;ecd8&#45;4146&#45;b734&#45;411101f719c5</title>
<ellipse fill="none" stroke="black" cx="309" cy="-18" rx="27" ry="18"/>
<text text-anchor="middle" x="309" y="-14.3" font-family="Times New Roman,serif" font-size="14.00">否</text>
</g>
<!-- a81fb3ad&#45;74ef&#45;4deb&#45;a110&#45;a7b0f4ca40c7&#45;&gt;8ceb2367&#45;ecd8&#45;4146&#45;b734&#45;411101f719c5 -->
<g id="edge11" class="edge"><title>a81fb3ad&#45;74ef&#45;4deb&#45;a110&#45;a7b0f4ca40c7&#45;&gt;8ceb2367&#45;ecd8&#45;4146&#45;b734&#45;411101f719c5</title>
<path fill="none" stroke="black" d="M280.112,-87.2067C285.224,-75.1377 292.212,-58.6384 298.035,-44.8906"/>
<polygon fill="black" stroke="black" points="301.348,-46.0423 302.025,-35.4692 294.902,-43.3123 301.348,-46.0423"/>
<text text-anchor="middle" x="306" y="-57.8" font-family="Times New Roman,serif" font-size="14.00">软粘</text>
</g>
</g>
</svg>
